<?xml version="1.0" standalone="no"?><!DOCTYPE svg PUBLIC "-//W3C//DTD SVG 1.1//EN" "http://www.w3.org/Graphics/SVG/1.1/DTD/svg11.dtd"><svg t="1633000824517" class="icon" viewBox="0 0 1068 1024" version="1.1" xmlns="http://www.w3.org/2000/svg" p-id="10133" xmlns:xlink="http://www.w3.org/1999/xlink" width="208.59375" height="200"><defs><style type="text/css"></style></defs><path d="M1026.141941 269.871921c-27.021412-52.775404-65.677748-100.126247-114.879025-140.772433C810.464936 45.842612 676.561923 0 534.217887 0S257.983514 45.842612 157.160185 129.099488c-49.175929 40.633512-87.832265 87.997029-114.853677 140.772433C14.233136 324.687873 0 382.925861 0 442.976261v290.125306a290.898433 290.898433 0 0 0 290.898433 290.885759h486.689606A290.898433 290.898433 0 0 0 1068.435775 733.101567V442.976261c0-60.0504-14.220462-118.288388-42.293834-173.10434zM1048.157041 733.101567c0 149.213456-121.406243 270.607025-270.619699 270.607025h-397.970146c-73.954006-31.115182-124.042478-94.562269-137.489814-174.37176-15.094982-89.251776 18.301557-182.62267 87.160532-243.699681C451.113102 477.475456 642.328886 471.480555 755.382825 572.303884c40.874322 36.400327 63.371042 85.664975 63.256975 138.719212-0.076045 58.174617-27.781865 116.083075-76.045251 158.883877-76.70431 68.035151-196.906503 71.862762-267.945441 8.542417-25.348417-22.598114-39.290046-53.15563-39.290047-86.07055 0-36.184865 17.325643-72.242988 47.426888-98.96022 47.743743-42.357205 122.496225-44.803327 166.627819-5.462584 15.437186 13.751516 23.916231 32.331906 23.890883 52.344481 0 22.116494-10.633661 44.207639-29.150679 60.608065a10.139367 10.139367 0 0 0 13.460009 15.20905c22.813575-20.278734 35.918707-47.845137 35.944055-75.753744 0-25.880734-10.861797-49.847662-30.671584-67.515508-25.120281-22.395326-59.125183-34.080947-95.740971-32.952942a154.625343 154.625343 0 0 0-97.844889 38.440874c-34.42315 30.544842-54.194915 72.12892-54.245613 114.067876 0 38.783078 16.299032 74.77783 46.020051 101.228904C499.363814 927.625319 551.074585 945.495953 606.815754 943.734238c55.525707-1.672996 108.529247-22.49672 149.251479-58.630889 26.793277-23.764141 47.617001-51.31787 61.900834-81.875387A216.919078 216.919078 0 0 0 838.918534 711.023096c0.063371-58.935069-24.790752-113.586256-69.999654-153.89024-58.529495-52.129019-137.946085-79.454613-223.585712-76.780355-85.424165 2.534842-166.970023 34.613263-229.605961 90.176994-74.042726 65.614377-109.936084 166.108176-93.700423 262.166002 12.357353 73.054138 52.91482 133.497438 113.408818 171.000421h-44.537169C141.672302 1003.708592 20.278734 882.315023 20.278734 733.101567v-12.674209c0-233.078694 230.556526-422.697527 513.939153-422.697527S1048.157041 487.386687 1048.157041 720.465381z m-22.0151-185.740525c-27.021412-52.775404-65.677748-100.126247-114.879025-140.785108-100.79798-83.244201-234.700993-129.086813-377.045029-129.086814S257.983514 323.331733 157.160185 406.575934c-49.175929 40.646187-87.832265 88.009704-114.853677 140.785108A394.510087 394.510087 0 0 0 20.278734 599.046464V442.976261C20.278734 209.897567 250.83526 20.278734 534.217887 20.278734S1048.157041 209.897567 1048.157041 442.976261v156.070203a394.510087 394.510087 0 0 0-22.0151-51.685422z" p-id="10134"></path><path d="M261.152066 175.613833a10.139367 10.139367 0 0 0-14.144417 2.357402l-35.690571 49.949056a10.139367 10.139367 0 0 0 16.476471 11.787014l35.677897-49.949056a10.139367 10.139367 0 0 0-2.31938-14.144416zM392.520237 188.972448h-40.303983a10.139367 10.139367 0 0 0 0 20.278734h40.303983a10.139367 10.139367 0 0 0 0-20.278734zM519.313018 111.938609a10.139367 10.139367 0 0 0-17.198901 10.735055l35.677897 57.173354a10.139367 10.139367 0 1 0 17.198901-10.747728zM690.807733 122.306112l-46.134119 30.202639a10.139367 10.139367 0 1 0 11.102607 16.970765l46.146793-30.215313a10.139367 10.139367 0 1 0-11.115281-16.958091zM835.230339 251.55769L788.804713 212.926702a10.139367 10.139367 0 0 0-12.978389 15.589277l46.463648 38.66901A10.139367 10.139367 0 0 0 835.230339 251.55769zM931.871179 295.651261a10.139367 10.139367 0 0 0-20.17734 2.053222l4.651434 46.070748a10.139367 10.139367 0 0 0 10.139367 9.112756 9.505656 9.505656 0 0 0 1.039285 0 10.139367 10.139367 0 0 0 9.062059-11.115281zM180.69619 320.809565l-71.609278 20.773028a10.139367 10.139367 0 0 0 2.826349 19.873159 10.025299 10.025299 0 0 0 2.826348-0.405575L186.310865 340.289824a10.139367 10.139367 0 1 0-5.640023-19.480259z" p-id="10135"></path></svg>